# xmcd
# 
# Track frame offsets:
#     150
#     1580
#     51260
#     78282
#     96952
#     122540
#     129870
#     157852
#     175712
#     214212
#     232492
# 
# Disc length: 3712
# 
# Revision: 5
# Processed by: cddbd v1.5.2PL0 Copyright (c) Steve Scherf et al.
# Submitted via: fre:ac v1.1beta1pre5
# 
DISCID=810e7e0b
DTITLE=Jordan Rudess - Feeding the Wheel
DYEAR=2001
DGENRE=Progressive Rock
TTITLE0=The Voice (Intro)
TTITLE1=Quantum Soup
TTITLE2=Shifting Sands
TTITLE3=Dreaming in Titanium
TTITLE4=Ucan Icon
TTITLE5=Center of the Sphere
TTITLE6=Crack the Meter
TTITLE7=Headspace
TTITLE8=Revolving Door
TTITLE9=Interstices
TTITLE10=Feed the Wheel
EXTD=
EXTT0=
EXTT1=
EXTT2=
EXTT3=
EXTT4=
EXTT5=
EXTT6=
EXTT7=
EXTT8=
EXTT9=
EXTT10=
PLAYORDER=
